<?xml version="1.0" encoding="UTF-8" standalone="no"?>
<!-- Created with Inkscape (http://www.inkscape.org/) -->

<svg
   xmlns:dc="http://purl.org/dc/elements/1.1/"
   xmlns:cc="http://creativecommons.org/ns#"
   xmlns:rdf="http://www.w3.org/1999/02/22-rdf-syntax-ns#"
   xmlns:svg="http://www.w3.org/2000/svg"
   xmlns="http://www.w3.org/2000/svg"
   xmlns:sodipodi="http://sodipodi.sourceforge.net/DTD/sodipodi-0.dtd"
   xmlns:inkscape="http://www.inkscape.org/namespaces/inkscape"
   width="300"
   height="150"
   id="svg2"
   version="1.1"
   inkscape:version="0.48.4 r9939"
   sodipodi:docname="havai-freeair.svg"
   inkscape:export-filename="havai-freeair.png"
   inkscape:export-xdpi="300"
   inkscape:export-ydpi="300">
  <defs
     id="defs4">
    <marker
       inkscape:stockid="Arrow2Mend"
       orient="auto"
       refY="0"
       refX="0"
       id="Arrow2Mend"
       style="overflow:visible">
      <path
         id="path3869"
         style="fill-rule:evenodd;stroke-width:0.625;stroke-linejoin:round"
         d="M 8.7185878,4.0337352 -2.2072895,0.01601326 8.7185884,-4.0017078 c -1.7454984,2.3720609 -1.7354408,5.6174519 -6e-7,8.035443 z"
         transform="scale(-0.6,-0.6)"
         inkscape:connector-curvature="0" />
    </marker>
    <marker
       inkscape:stockid="Arrow1Mend"
       orient="auto"
       refY="0"
       refX="0"
       id="Arrow1Mend"
       style="overflow:visible">
      <path
         id="path3851"
         d="M 0,0 5,-5 -12.5,0 5,5 0,0 z"
         style="fill-rule:evenodd;stroke:#000000;stroke-width:1pt"
         transform="matrix(-0.4,0,0,-0.4,-4,0)"
         inkscape:connector-curvature="0" />
    </marker>
    <marker
       inkscape:stockid="Arrow1Send"
       orient="auto"
       refY="0"
       refX="0"
       id="Arrow1Send"
       style="overflow:visible">
      <path
         id="path3857"
         d="M 0,0 5,-5 -12.5,0 5,5 0,0 z"
         style="fill-rule:evenodd;stroke:#000000;stroke-width:1pt"
         transform="matrix(-0.2,0,0,-0.2,-1.2,0)"
         inkscape:connector-curvature="0" />
    </marker>
  </defs>
  <sodipodi:namedview
     id="base"
     pagecolor="#ffffff"
     bordercolor="#666666"
     borderopacity="1.0"
     inkscape:pageopacity="0.0"
     inkscape:pageshadow="2"
     inkscape:zoom="1.979899"
     inkscape:cx="111.74626"
     inkscape:cy="89.28624"
     inkscape:document-units="px"
     inkscape:current-layer="layer1"
     showgrid="false"
     fit-margin-top="0"
     fit-margin-left="0"
     fit-margin-right="0"
     fit-margin-bottom="0"
     inkscape:window-width="1366"
     inkscape:window-height="719"
     inkscape:window-x="0"
     inkscape:window-y="25"
     inkscape:window-maximized="1" />
  <metadata
     id="metadata7">
    <rdf:RDF>
      <cc:Work
         rdf:about="">
        <dc:format>image/svg+xml</dc:format>
        <dc:type
           rdf:resource="http://purl.org/dc/dcmitype/StillImage" />
        <dc:title></dc:title>
      </cc:Work>
    </rdf:RDF>
  </metadata>
  <g
     inkscape:label="Layer 1"
     inkscape:groupmode="layer"
     id="layer1"
     transform="translate(-226.9686,-107.21553)">
    <text
       xml:space="preserve"
       style="font-size:11px;font-style:normal;font-variant:normal;font-weight:normal;font-stretch:normal;line-height:125%;letter-spacing:0px;word-spacing:0px;fill:#000000;fill-opacity:1;stroke:none;font-family:Arial;-inkscape-font-specification:Arial"
       x="137.38075"
       y="233.33504"
       id="text4877"
       sodipodi:linespacing="125%"
       transform="translate(226.9686,57.215534)"><tspan
         sodipodi:role="line"
         id="tspan4879"
         x="137.38075"
         y="233.33504" /></text>
    <g
       id="g3014"
       transform="matrix(1.0267595,0,0,1.0267595,-59.132136,-29.777678)">
      <path
         sodipodi:nodetypes="ccssssssscsscsssssssssscccccccc"
         transform="translate(226.9686,57.215534)"
         inkscape:connector-curvature="0"
         id="path4972"
         d="m 54.913465,204.49018 0.0019,-13.7002 3.849333,-0.93586 c 2.117133,-0.51472 6.008533,-1.5565 8.647557,-2.31506 13.083251,-3.76066 17.207974,-4.49963 34.092655,-6.10793 4.93916,-0.47047 21.99333,-0.53339 28.02478,-0.1034 9.38834,0.6693 14.66954,2.2782 24.50315,7.46481 7.06007,3.72375 11.21786,5.59516 11.5944,5.21862 0.48338,-0.48338 0.0414,-1.0567 -1.24198,-1.61094 l -1.3906,-0.60055 13.57556,-0.0691 c 16.65974,-0.0848 46.39045,-0.50572 49.30972,-0.69809 l 2.14657,-0.14146 -0.65989,0.58083 c -0.72022,0.63394 -1.64984,1.9698 -1.37077,1.9698 0.0957,0 2.29638,-1.13049 4.8904,-2.51219 5.383,-2.86724 7.43073,-3.78074 10.4264,-4.65127 1.16528,-0.33863 2.74372,-0.85522 3.50765,-1.14797 3.09227,-1.18503 8.98955,-2.67805 13.00571,-3.29266 5.15101,-0.78828 14.19388,-0.99404 22.51094,-0.5122 5.12056,0.29665 13.18855,1.74457 24.58743,4.41259 9.29199,2.17487 14.61473,3.2442 20.70812,4.16022 5.11946,0.7696 13.96998,1.52453 15.82647,1.52367 l 1.07328,-5e-4 0,13.38452 0,13.38452 -144.81031,0 -142.810323,0 0.0019,-13.70019 0,0 z"
         style="color:#000000;fill:#d35f5f;marker:none;visibility:visible;display:inline;overflow:visible;enable-background:accumulate" />
      <g
         id="g3059">
        <path
           style="fill:#000000"
           d="m 433.8085,137.53873 c -0.63393,0.0348 -1.35483,0.189 -2.16165,0.47769 -8.34852,0.1308 -16.68438,1.92849 -24.93555,1.24785 0.2709,3.95253 -0.44148,8.35203 -0.09,12.51969 0.91326,5.96412 -8.18448,2.60505 -11.84796,3.64347 -5.75538,-0.1446 -12.37305,-0.1818 -17.61942,-0.31866 -6.2373,0.5142 -13.43766,0.2595 -19.50041,-0.114 -19.25754,0.1134 -38.68704,1.50048 -58.01754,0.99198 -6.78838,1.55436 -14.81368,-1.98096 -20.89828,1.19232 -0.8511,1.42059 4.2666,-1.06107 9.3003,-0.03 14.34598,-0.2568 28.84288,-0.057 43.18858,-0.51405 23.1732,-1.24968 46.50743,0.0459 69.73448,-0.40191 9.56463,-2.95794 3.66759,9.70317 5.32131,14.91963 -1.4196,16.80629 0.85539,34.26917 -3.63081,50.71127 -4.12821,-1.63881 -8.42745,-3.88071 -12.84753,-5.05818 -6.95175,-1.23198 -13.66467,-5.12058 -20.22954,-6.27129 -1.76487,-0.51141 -4.02297,-0.93069 -5.94444,-1.37538 -6.84389,-2.10462 -14.22524,-0.1161 -21.10466,0.0387 -8.72061,2.06253 -17.73591,2.02614 -26.34921,3.98613 -7.4658,2.81646 -15.1278,4.42698 -22.84378,5.75214 -4.9836,1.09071 -5.9087,1.12737 -10.982,1.42731 -9.0456,0.43047 1.7715,1.07463 5.2173,0.71586 7.5636,-0.2802 10.77738,-2.23674 18.15798,-3.46092 4.443,-1.53543 10.4106,-2.80053 14.0472,-4.3701 9.135,-0.45594 18.2439,-2.4123 27.3834,-3.17481 7.29198,-1.77411 14.84663,-0.62628 21.98297,1.51695 8.76261,2.73084 17.83029,5.20734 26.30616,8.44299 2.47041,1.0236 7.76883,4.03149 8.19369,2.07858 3.94956,-13.46391 2.74098,-27.60648 3.22536,-41.46929 0.59034,-8.27163 0.2877,-16.59948 0.75147,-24.85428 -0.48735,-4.99437 0.2418,-10.09938 -0.0813,-15.10608 5.23299,-0.48897 10.91787,-0.44055 16.27419,-1.31367 3.72138,0.8322 11.89992,-3.01977 12.6831,1.6707 -0.60258,4.35939 0.552,9.22647 -0.2874,13.2927 1.75533,6.47298 0.1587,13.45974 2.07612,19.94646 0.46434,9.34943 0.79608,18.7853 3.24018,27.92657 2.22135,7.87122 3.17298,16.90365 6.37026,24.14961 2.52726,-3.53763 6.62145,-5.42193 9.84921,-8.26317 7.24539,-3.95274 14.96778,-7.7946 23.35674,-8.25012 9.3042,-3.85215 19.4342,-2.72466 29.17529,-2.60271 11.66346,1.90311 23.48373,3.39216 35.01132,6.43344 6.74949,0.73878 9.11621,3.44958 15.95546,4.1799 -0.85194,-0.0669 8.54814,1.02909 7.53936,-1.04421 -9.05655,1.32843 -13.56641,-3.26331 -22.24154,-3.92223 -7.87968,-1.92588 -15.79275,-3.61512 -23.82798,-4.60989 -4.49484,-0.83994 -8.8299,-1.73994 -13.37598,-1.90191 -9.55133,-0.69111 -19.2929,-0.88098 -28.42352,2.41401 -7.88253,0.59577 -15.16635,4.11978 -22.27782,7.34583 -4.93422,2.68275 -12.25923,13.16382 -12.26175,2.09475 -3.64746,-14.11017 -7.02219,-28.79325 -6.98973,-43.5974 -1.50255,-6.29454 -0.90087,-12.91107 -1.77936,-19.20234 7.25313,0.40302 14.64666,-0.2067 21.94776,-0.0489 14.9061,-0.2064 29.80884,0.94314 44.73899,0.78999 19.12041,-0.45408 38.28243,0.84381 57.28116,2.52363 3.01815,-0.30381 5.27648,2.01294 6.82586,-0.47598 -11.95497,0.0828 -20.53235,-2.22132 -32.5031,-2.35158 -16.95819,-1.4553 -33.95019,-0.1386 -50.94146,-0.79833 -14.7636,-1.26201 -29.63781,-0.1161 -44.38221,-0.65541 -4.95438,0.95583 -2.3853,-5.83071 -3.27966,-8.84661 1.13859,-4.07793 0.39465,-8.23968 -3.4794,-8.02713 z m 9.5322,64.49102 c -0.1485,-0.012 -0.50538,0.55587 0.012,0.36327 0.0696,-0.2625 0.0456,-0.35829 -0.012,-0.36327 z m -112.25759,35.11896 c -4.1298,1.13844 -8.7909,0.55968 -12.9606,1.69347 -10.1847,0.34506 -16.0568,3.3369 -26.01802,5.5107 -3.7941,0.43767 -19.7868,5.60583 -7.854,3.01293 10.4454,-2.5554 16.56472,-5.08113 26.90062,-6.94977 9.2628,-0.90828 18.636,-2.50806 27.9054,-2.40372 9.86985,0.46677 20.13999,-0.61203 29.66486,2.45652 8.52762,2.19318 15.43479,8.04069 23.65767,10.71741 1.21398,-0.89397 -1.44192,-1.62084 -1.90566,-1.725 -9.10884,-4.74294 -18.16434,-10.0365 -28.43448,-11.67306 -10.24199,-0.61155 -20.67746,-0.99126 -30.95579,-0.63948 z m 162.32945,0.024 c -9.4539,0.36681 -18.71769,2.38152 -27.55494,5.91237 -4.32225,1.68876 -11.07831,3.96504 -12.87885,7.48272 5.47128,-2.74773 10.73565,-6.37059 16.8816,-7.64538 8.20797,-3.2943 16.80486,-4.79718 25.61415,-4.75755 6.90815,0.2595 13.87745,-0.36012 20.60342,1.34448 4.63101,0.86919 9.37584,1.6521 13.84221,2.84523 13.29249,3.23799 23.09006,5.24322 36.74732,6.26841 5.25504,0.39831 5.58219,-2.47239 0.67959,-0.92904 -9.43662,-0.195 -14.516,-2.4876 -23.88458,-3.43938 -8.29377,-1.40595 -16.19016,-3.78261 -24.40827,-5.27451 -6.61029,-1.62018 -13.55121,-1.71609 -20.37308,-1.83999 -1.76226,-0.0459 -3.51786,-0.0354 -5.26857,0.0327 z"
           id="path3003"
           inkscape:connector-curvature="0"
           sodipodi:nodetypes="ccccccccccccccccccccccccccccccccccccccccccccccccccccccccccccccccccccccccccccccccccccccccc" />
        <path
           style="color:#000000;fill:#808080;fill-opacity:1;fill-rule:nonzero;marker:none;visibility:visible;display:inline;overflow:visible;enable-background:accumulate"
           d="m 381.88479,244.89065 c -7.84824,-3.90176 -13.74262,-6.16201 -18.21429,-6.98441 -2.82137,-0.51888 -21.71978,-1.21285 -28.03571,-1.02949 -2.94643,0.0855 -6.80358,0.34937 -8.57143,0.58631 -3.35163,0.44919 -10.59904,1.2917 -14.28572,1.66069 -4.69041,0.46947 -22.35266,5.14535 -28.19025,6.94839 -1.31051,0.40478 -2.43003,0.68867 -2.48782,0.63088 -0.0578,-0.0578 -0.27185,-4.27887 -0.47567,-9.38017 -0.20383,-5.1013 0.45306,-11.12934 -0.57017,-12.74222 l -0.19958,-3.46713 1.74522,0.2067 c 2.70984,0.32095 6.99589,-0.52337 14.46399,-1.88139 7.93816,-1.4435 10.4631,-2.06142 17.58473,-4.30347 4.09876,-1.29037 6.26617,-1.75863 9.7367,-2.10354 2.45535,-0.24402 7.03571,-0.79463 10.17857,-1.22358 3.14285,-0.42895 7.48214,-0.9975 9.64285,-1.26345 2.16072,-0.26594 5.33736,-0.67706 7.05921,-0.9136 3.35161,-0.46043 7.89543,-0.13689 12.90914,0.91919 6.14508,1.29439 27.78725,8.20719 33.65334,10.74933 3.73742,1.61966 5.14207,1.894 5.75008,1.12307 0.19364,-0.24553 0.61274,-1.57143 0.93133,-2.94643 1.69314,-7.30743 2.35821,-15.15477 2.37605,-28.03571 0.006,-4.61607 0.16995,-12.00893 0.36346,-16.42857 0.1935,-4.41964 0.36297,-13.91386 0.37657,-21.09826 l 0.0247,-13.06255 6.49232,-0.44887 c 3.57078,-0.24687 8.26018,-0.59124 10.4209,-0.76526 9.7419,-0.7846 9.96494,-0.78925 10.71428,-0.22344 0.66597,0.50286 0.72851,1.09096 0.92453,8.69386 0.26891,10.42977 0.86013,19.94991 1.54882,24.94023 0.2982,2.16072 0.70625,6.58161 0.90678,9.8242 0.64587,10.44344 1.02314,12.55737 5.92729,33.21152 1.289,5.42869 2.89086,10.35714 3.36631,10.35714 0.15391,0 0.52715,-0.37745 0.82942,-0.83877 0.80566,-1.22959 8.56834,-7.00958 11.67542,-8.69337 6.39196,-3.46391 12.96092,-5.85188 18.03811,-6.55725 1.57012,-0.21813 3.4443,-0.6182 4.16485,-0.88904 7.34957,-2.76252 21.35929,-3.04124 36.01133,-0.71641 10.25931,1.62784 16.92845,2.85754 22.32143,4.11579 2.35714,0.54994 5.41071,1.18833 6.78571,1.41864 1.375,0.2303 4.66965,0.96104 7.32143,1.62386 6.49726,1.624 6.69908,2.31975 10.01786,2.32112 l 2.76786,0.001 -0.002,1.51786 c -10e-4,0.83482 0.25956,7.27035 0.57978,14.30117 0.32022,7.03082 0.46677,12.89689 0.32567,13.03572 -0.45465,0.44729 -3.32834,0.10205 -8.49117,-0.6274 -12.53178,-1.77058 -19.54868,-2.87158 -22.51899,-3.53338 -1.76786,-0.39388 -6.46068,-1.44593 -10.42849,-2.33787 -11.24206,-2.52714 -14.9529,-3.08563 -22.42865,-3.3755 -11.78784,-0.45708 -20.61825,0.28057 -29.011,2.42343 -6.94579,1.77342 -18.54539,6.37012 -20.52492,8.13364 -0.52407,0.46689 -4.19642,0.58216 -26.78571,0.84076 -14.39811,0.16483 -28.99087,0.29545 -32.42837,0.29027 l -6.24994,-0.009 -8.03571,-3.99497 z"
           id="path3048"
           inkscape:connector-curvature="0"
           sodipodi:nodetypes="cscssscsscssssssssssscsscsssssssssssssssscccscssssssscccc" />
        <path
           id="path3056"
           style="color:#000000;fill:#aaccff;fill-opacity:1;fill-rule:nonzero;marker:none;visibility:visible;display:inline;overflow:visible;enable-background:accumulate"
           d="m 397.47601,219.45717 c -2.52305,-1.07297 -6.32746,-2.41708 -8.45426,-2.9869 -2.12681,-0.56983 -6.5728,-2.00199 -9.88,-3.18258 -8.17572,-2.91855 -17.65403,-5.07761 -22.43554,-5.1106 -4.7572,-0.0328 -13.04807,0.66559 -17.67857,1.48919 -2.0625,0.36685 -6.5625,1.00129 -10,1.40987 -8.08106,0.96053 -13.27641,1.90317 -15.65263,2.84 -2.82479,1.11368 -10.72591,3.08616 -17.29817,4.31841 -5.55886,1.04224 -14.71277,2.0901 -15.077,1.72587 -0.21445,-0.21445 -0.84489,-62.19956 -0.63515,-62.44838 0.1964,-0.233 35.74365,-0.64953 84.91295,-0.99497 39.16955,-0.27519 39.28805,-0.27386 40.07499,0.44877 0.93786,0.86122 0.97698,1.48274 0.68624,10.90334 -0.11215,3.63393 -0.36641,13.67857 -0.56502,22.32143 -0.21862,9.5137 -0.57473,17.47582 -0.90249,20.17857 -0.57765,4.76326 -1.87481,11.0821 -2.26946,11.05513 -0.1312,-0.009 -2.30285,-0.89418 -4.82589,-1.96715 z m 49.76954,2.7045 c -0.20826,-0.38913 -0.52125,-1.79538 -0.69554,-3.125 -0.17429,-1.32961 -0.95264,-4.98891 -1.72966,-8.13177 -1.78535,-7.22128 -1.99797,-8.39285 -1.52318,-8.39285 0.20533,0 0.37333,-0.16072 0.37333,-0.35715 0,-0.19642 -0.22365,-0.35714 -0.497,-0.35714 -0.96268,0 -2.96067,-12.72998 -3.27916,-20.89285 -0.10729,-2.75 -0.4242,-6.52679 -0.70423,-8.39286 -0.40821,-2.72024 -1.2339,-13.61349 -1.2339,-16.27872 0,-0.54775 1.89058,-0.57593 25.26786,-0.37671 42.78178,0.3646 70.21346,0.87014 78.30357,1.44306 13.38303,0.94775 25.88413,2.04453 26.14023,2.2934 0.33314,0.32375 1.2021,56.76711 0.87893,57.09029 -0.51186,0.40148 -7.12267,-0.11658 -12.31024,-1.65276 -3.16158,-0.93623 -6.22261,-1.86768 -7.14286,-1.99014 -0.92026,-0.12247 -4.88749,-0.92245 -8.81606,-1.77773 -3.92857,-0.85527 -9.3125,-1.9021 -11.96428,-2.32629 -2.65179,-0.42418 -7.09941,-1.15547 -9.8836,-1.6251 -7.24247,-1.22162 -18.77121,-1.8169 -24.64586,-1.27256 -2.51773,0.23329 -5.8634,0.72141 -7.43483,1.0847 -1.57143,0.36329 -3.90178,0.90612 -5.17857,1.20629 -1.27679,0.30016 -3.86904,0.86945 -5.76056,1.26509 -6.66866,1.39482 -16.96954,5.97781 -20.66801,9.19545 -4.44677,3.86865 -6.69025,4.87762 -7.49638,3.37135 z"
           inkscape:connector-curvature="0"
           sodipodi:nodetypes="cssssssssssssssccccssssssssssscsssssssssscc" />
      </g>
      <text
         sodipodi:linespacing="125%"
         id="text4881"
         y="186.35002"
         x="335.95303"
         style="font-size:30px;font-style:normal;font-variant:normal;font-weight:normal;font-stretch:normal;line-height:125%;letter-spacing:0px;word-spacing:0px;fill:#000000;fill-opacity:1;stroke:none;font-family:Arial;-inkscape-font-specification:Arial"
         xml:space="preserve"><tspan
           style="fill:#ff0000"
           y="186.35002"
           x="335.95303"
           id="tspan4883"
           sodipodi:role="line">-</tspan></text>
      <text
         sodipodi:linespacing="125%"
         id="text4885"
         y="153.16982"
         x="415.36206"
         style="font-size:11px;font-style:normal;font-variant:normal;font-weight:normal;font-stretch:normal;line-height:125%;letter-spacing:0px;word-spacing:0px;fill:#000000;fill-opacity:1;stroke:none;font-family:Arial;-inkscape-font-specification:Arial"
         xml:space="preserve"><tspan
           style="font-size:20px;fill:#000080"
           y="153.16982"
           x="415.36206"
           id="tspan4887"
           sodipodi:role="line">+</tspan></text>
      <path
         transform="translate(226.9686,57.215534)"
         inkscape:connector-curvature="0"
         id="path4889"
         d="m 180.31223,98.479669 29.04189,-0.505076"
         style="fill:none;stroke:#000000;stroke-width:1;stroke-linecap:butt;stroke-linejoin:miter;stroke-miterlimit:4;stroke-opacity:1;stroke-dasharray:1, 1;stroke-dashoffset:0" />
      <text
         sodipodi:linespacing="125%"
         id="text4881-9"
         y="185.34367"
         x="497.3233"
         style="font-size:30px;font-style:normal;font-variant:normal;font-weight:normal;font-stretch:normal;line-height:125%;letter-spacing:0px;word-spacing:0px;fill:#000000;fill-opacity:1;stroke:none;font-family:Arial;-inkscape-font-specification:Arial"
         xml:space="preserve"><tspan
           style="fill:#ff0000"
           y="185.34367"
           x="497.3233"
           id="tspan4883-7"
           sodipodi:role="line">-</tspan></text>
      <text
         sodipodi:linespacing="125%"
         id="text4885-5"
         y="197.11858"
         x="417.2002"
         style="font-size:11px;font-style:normal;font-variant:normal;font-weight:normal;font-stretch:normal;line-height:125%;letter-spacing:0px;word-spacing:0px;fill:#000000;fill-opacity:1;stroke:none;font-family:Arial;-inkscape-font-specification:Arial"
         xml:space="preserve"><tspan
           style="font-size:20px;fill:#000080"
           y="197.11858"
           x="417.2002"
           id="tspan4887-2"
           sodipodi:role="line">+</tspan></text>
      <text
         sodipodi:linespacing="125%"
         id="text4885-3"
         y="229.60986"
         x="335.49496"
         style="font-size:11px;font-style:normal;font-variant:normal;font-weight:normal;font-stretch:normal;line-height:125%;letter-spacing:0px;word-spacing:0px;fill:#000000;fill-opacity:1;stroke:none;font-family:Arial;-inkscape-font-specification:Arial"
         xml:space="preserve"><tspan
           style="font-size:20px;fill:#000080"
           y="229.60986"
           x="335.49496"
           id="tspan4887-9"
           sodipodi:role="line">+</tspan></text>
      <text
         sodipodi:linespacing="125%"
         id="text4885-33"
         y="230.3062"
         x="499.5733"
         style="font-size:11px;font-style:normal;font-variant:normal;font-weight:normal;font-stretch:normal;line-height:125%;letter-spacing:0px;word-spacing:0px;fill:#000000;fill-opacity:1;stroke:none;font-family:Arial;-inkscape-font-specification:Arial"
         xml:space="preserve"><tspan
           style="font-size:20px;fill:#000080"
           y="230.3062"
           x="499.5733"
           id="tspan4887-74"
           sodipodi:role="line">+</tspan></text>
      <text
         sodipodi:linespacing="125%"
         id="text4885-7"
         y="263.54712"
         x="330.41446"
         style="font-size:11px;font-style:normal;font-variant:normal;font-weight:normal;font-stretch:normal;line-height:125%;letter-spacing:0px;word-spacing:0px;fill:#000000;fill-opacity:1;stroke:none;font-family:Arial;-inkscape-font-specification:Arial"
         xml:space="preserve"><tspan
           style="font-size:20px;fill:#000080"
           y="263.54712"
           x="330.41446"
           id="tspan4887-25"
           sodipodi:role="line">+</tspan></text>
      <text
         sodipodi:linespacing="125%"
         id="text4885-77"
         y="265.33286"
         x="502.2002"
         style="font-size:11px;font-style:normal;font-variant:normal;font-weight:normal;font-stretch:normal;line-height:125%;letter-spacing:0px;word-spacing:0px;fill:#000000;fill-opacity:1;stroke:none;font-family:Arial;-inkscape-font-specification:Arial"
         xml:space="preserve"><tspan
           style="font-size:20px;fill:#000080"
           y="265.33286"
           x="502.2002"
           id="tspan4887-7"
           sodipodi:role="line">+</tspan></text>
      <text
         sodipodi:linespacing="125%"
         id="text4885-7-6"
         y="255.17006"
         x="418.10849"
         style="font-size:11px;font-style:normal;font-variant:normal;font-weight:normal;font-stretch:normal;line-height:125%;letter-spacing:0px;word-spacing:0px;fill:#000000;fill-opacity:1;stroke:none;font-family:Arial;-inkscape-font-specification:Arial"
         xml:space="preserve"><tspan
           style="font-size:20px;fill:#000000"
           y="255.17006"
           x="418.10849"
           id="tspan4887-25-0"
           sodipodi:role="line">?</tspan></text>
    </g>
  </g>
</svg>
