<?xml version="1.0" encoding="UTF-8" standalone="no"?>
<!-- Created with Inkscape (http://www.inkscape.org/) -->

<svg
   xmlns:dc="http://purl.org/dc/elements/1.1/"
   xmlns:cc="http://creativecommons.org/ns#"
   xmlns:rdf="http://www.w3.org/1999/02/22-rdf-syntax-ns#"
   xmlns:svg="http://www.w3.org/2000/svg"
   xmlns="http://www.w3.org/2000/svg"
   xmlns:sodipodi="http://sodipodi.sourceforge.net/DTD/sodipodi-0.dtd"
   xmlns:inkscape="http://www.inkscape.org/namespaces/inkscape"
   width="300"
   height="70"
   id="svg2"
   version="1.1"
   inkscape:version="0.48.4 r9939"
   sodipodi:docname="placa-massa-flexura.svg"
   inkscape:export-filename="placa-massa-flexura.png"
   inkscape:export-xdpi="300"
   inkscape:export-ydpi="300">
  <defs
     id="defs4">
    <marker
       inkscape:stockid="Arrow1Mend"
       orient="auto"
       refY="0"
       refX="0"
       id="Arrow1Mend"
       style="overflow:visible">
      <path
         id="path3865"
         d="M 0,0 5,-5 -12.5,0 5,5 0,0 z"
         style="fill-rule:evenodd;stroke:#000000;stroke-width:1pt"
         transform="matrix(-0.4,0,0,-0.4,-4,0)"
         inkscape:connector-curvature="0" />
    </marker>
    <marker
       inkscape:stockid="Arrow2Mend"
       orient="auto"
       refY="0"
       refX="0"
       id="Arrow2Mend"
       style="overflow:visible">
      <path
         id="path3883"
         style="fill-rule:evenodd;stroke-width:0.625;stroke-linejoin:round"
         d="M 8.7185878,4.0337352 -2.2072895,0.01601326 8.7185884,-4.0017078 c -1.7454984,2.3720609 -1.7354408,5.6174519 -6e-7,8.035443 z"
         transform="scale(-0.6,-0.6)"
         inkscape:connector-curvature="0" />
    </marker>
    <marker
       inkscape:stockid="Arrow1Mend"
       orient="auto"
       refY="0"
       refX="0"
       id="Arrow1Mend-2"
       style="overflow:visible">
      <path
         inkscape:connector-curvature="0"
         id="path3865-6"
         d="M 0,0 5,-5 -12.5,0 5,5 0,0 z"
         style="fill-rule:evenodd;stroke:#000000;stroke-width:1pt"
         transform="matrix(-0.4,0,0,-0.4,-4,0)" />
    </marker>
  </defs>
  <sodipodi:namedview
     id="base"
     pagecolor="#ffffff"
     bordercolor="#666666"
     borderopacity="1.0"
     inkscape:pageopacity="0.0"
     inkscape:pageshadow="2"
     inkscape:zoom="1.4"
     inkscape:cx="23.664146"
     inkscape:cy="77.711673"
     inkscape:document-units="px"
     inkscape:current-layer="layer1"
     showgrid="false"
     fit-margin-top="0"
     fit-margin-left="0"
     fit-margin-right="0"
     fit-margin-bottom="0"
     inkscape:window-width="1366"
     inkscape:window-height="719"
     inkscape:window-x="0"
     inkscape:window-y="25"
     inkscape:window-maximized="1" />
  <metadata
     id="metadata7">
    <rdf:RDF>
      <cc:Work
         rdf:about="">
        <dc:format>image/svg+xml</dc:format>
        <dc:type
           rdf:resource="http://purl.org/dc/dcmitype/StillImage" />
        <dc:title></dc:title>
      </cc:Work>
    </rdf:RDF>
  </metadata>
  <g
     inkscape:label="Layer 1"
     inkscape:groupmode="layer"
     id="layer1"
     transform="translate(593.66706,-313.79084)">
    <g
       id="g3007"
       transform="translate(0,-90.314969)">
      <path
         inkscape:connector-curvature="0"
         id="path2996"
         d=""
         style="fill:#000000" />
      <path
         inkscape:connector-curvature="0"
         id="rect3005-7"
         d="m -595.33328,434.35546 c 35.28155,0.7563 70.09743,-15.55459 128.88304,8.21429 l 41.60714,-0.35715 c 67.83681,-23.07863 93.48573,-7.31553 129.32203,-7.85714 0.19882,7.21436 0.0939,14.77656 0.0939,22.10643 0,0.046 -0.0426,0.0915 -0.0939,0.083 -75.784,-12.53964 -127.07314,3.8369 -129.75313,5 -9.95305,0.85946 -31.82155,2.27804 -42.67858,-0.35715 -5.2829,-2.10997 -64.33229,-19.63014 -127.3805,-4.64285 -0.0506,0.012 -0.0939,-0.037 -0.0939,-0.083 l 0,-22.02343 c 0,-0.046 0.0419,-0.0841 0.0939,-0.083 z"
         style="color:#000000;fill:#808080;fill-opacity:1;fill-rule:nonzero;marker:none;visibility:visible;display:inline;overflow:visible;enable-background:accumulate"
         sodipodi:nodetypes="sccccsccssss" />
      <path
         inkscape:connector-curvature="0"
         id="rect3008-2"
         d="m -466.19127,415.50635 41.52819,0 c 0.052,0 0.0939,0.037 0.0939,0.0829 l 0,26.9051 c 0,0.046 -0.0419,0.083 -0.0939,0.083 l -41.52819,0 c -0.052,0 -0.0939,-0.037 -0.0939,-0.083 l 0,-26.9051 c 0,-0.0459 0.0419,-0.0829 0.0939,-0.0829 z"
         style="color:#000000;fill:#ac9393;fill-opacity:1;fill-rule:nonzero;marker:none;visibility:visible;display:inline;overflow:visible;enable-background:accumulate" />
      <path
         sodipodi:nodetypes="cc"
         transform="translate(-593.66706,283.79084)"
         inkscape:connector-curvature="0"
         id="path3057"
         d="m -1.4681831,150.90183 299.2207231,0.1696"
         style="fill:none;stroke:#000000;stroke-width:1;stroke-linecap:butt;stroke-linejoin:miter;stroke-miterlimit:4;stroke-opacity:1;stroke-dasharray:1, 2;stroke-dashoffset:0" />
      <text
         sodipodi:linespacing="125%"
         id="text3846"
         y="425.57657"
         x="-551.16705"
         style="font-size:11px;font-style:normal;font-variant:normal;font-weight:normal;font-stretch:normal;line-height:125%;letter-spacing:0px;word-spacing:0px;fill:#000000;fill-opacity:1;stroke:none;font-family:Arial;-inkscape-font-specification:Arial"
         xml:space="preserve"><tspan
           y="425.57657"
           x="-551.16705"
           id="tspan3848"
           sodipodi:role="line">ombreira</tspan></text>
      <path
         sodipodi:nodetypes="cc"
         inkscape:connector-curvature="0"
         id="path4319-4"
         d="m -444.73594,448.30052 0.20921,-22.72843"
         style="fill:none;stroke:#000000;stroke-width:1px;stroke-linecap:butt;stroke-linejoin:miter;stroke-opacity:1;marker-end:url(#Arrow1Mend)" />
      <text
         sodipodi:linespacing="125%"
         id="text4507-6"
         y="458.56946"
         x="-460.48325"
         style="font-size:11px;font-style:normal;font-variant:normal;font-weight:normal;font-stretch:normal;line-height:125%;letter-spacing:0px;word-spacing:0px;fill:#000000;fill-opacity:1;stroke:none;font-family:Arial;-inkscape-font-specification:Arial"
         xml:space="preserve"><tspan
           y="458.56946"
           x="-460.48325"
           id="tspan4509-1"
           sodipodi:role="line">rigidez</tspan></text>
    </g>
  </g>
</svg>
